<svg xmlns="http://www.w3.org/2000/svg" xmlns:xlink="http://www.w3.org/1999/xlink" width="24" height="24" viewBox="0 0 24 24"><defs><style>.a{fill:none;}.b{clip-path:url(#a);}.c{fill:#f1b338;}</style><clipPath id="a"><rect class="a" width="24" height="24" transform="translate(-244.756 1270.915)"/></clipPath></defs><g class="b" transform="translate(244.756 -1270.915)"><path class="c" d="M-223.232,1277.728h-5.883a.478.478,0,0,1-.476-.48v-4.763h0v-1.57h-11.1a2.043,2.043,0,0,0-2.063,2.018V1292.9a2.043,2.043,0,0,0,2.063,2.017h15.873a2.043,2.043,0,0,0,2.064-2.017v-15.17Zm-4.091,3.007a2.232,2.232,0,0,1,.688,1.614,2.23,2.23,0,0,1-.688,1.613l-2.012,1.949a2.34,2.34,0,0,1-1.639.659.477.477,0,0,1-.476-.48.478.478,0,0,1,.476-.48,1.4,1.4,0,0,0,.98-.392l2.011-1.948a1.275,1.275,0,0,0,.4-.921,1.279,1.279,0,0,0-.4-.922,1.417,1.417,0,0,0-1.957,0l-2.011,1.949a1.275,1.275,0,0,0-.4.922.478.478,0,0,1-.477.48.478.478,0,0,1-.476-.48,2.231,2.231,0,0,1,.689-1.614l2.011-1.949A2.374,2.374,0,0,1-227.323,1280.735Zm-7.216,5.7a1.4,1.4,0,0,0-.979.391l-2.012,1.949a1.276,1.276,0,0,0-.4.922,1.273,1.273,0,0,0,.4.92,1.418,1.418,0,0,0,1.957,0l2.011-1.949a1.275,1.275,0,0,0,.4-.921.477.477,0,0,1,.476-.48.477.477,0,0,1,.476.48,2.235,2.235,0,0,1-.688,1.613l-2.012,1.949a2.352,2.352,0,0,1-1.639.656,2.346,2.346,0,0,1-1.638-.656,2.23,2.23,0,0,1-.688-1.614,2.232,2.232,0,0,1,.688-1.613l2.012-1.949a2.339,2.339,0,0,1,1.639-.659.478.478,0,0,1,.477.48A.478.478,0,0,1-234.539,1286.44Zm4.243-3.464a.472.472,0,0,1,.673.013.484.484,0,0,1-.013.679l-5.581,5.405a.471.471,0,0,1-.33.135.473.473,0,0,1-.343-.148.483.483,0,0,1,.013-.678Z"/><path class="c" d="M-228.638,1272.543v4.225h5.6l-5.6-5.575v.192l0,.01,0,.01v.135l0,.01Z"/></g></svg>