<svg xmlns="http://www.w3.org/2000/svg" width="24" height="24" viewBox="0 0 24 24"><defs><style>.a,.c{fill:none;}.a,.b{stroke-miterlimit:10;}.b{fill:#fff;stroke:#585a5d;stroke-width:1.5px;}.d,.e{stroke:none;}.e{fill:#585a5d;}</style></defs><g transform="translate(0 4.5)"><g class="a" transform="translate(582.703 -2361.035)"><path class="d" d="M-558.7,2368.535s-5.373,7.5-12,7.5-12-7.5-12-7.5,5.372-7.5,12-7.5S-558.7,2368.535-558.7,2368.535Z"/><path class="e" d="M -570.7030639648438 2362.534912109375 C -575.2059326171875 2362.534912109375 -579.2213745117188 2366.686279296875 -580.7872924804688 2368.53662109375 C -580.2218627929688 2369.206298828125 -579.33447265625 2370.177001953125 -578.2080688476563 2371.149658203125 C -576.41943359375 2372.69384765625 -573.6654663085938 2374.534912109375 -570.7030639648438 2374.534912109375 C -566.2020263671875 2374.534912109375 -562.1876220703125 2370.386474609375 -560.6204223632813 2368.534912109375 C -562.1884155273438 2366.6826171875 -566.2023315429688 2362.534912109375 -570.7030639648438 2362.534912109375 M -570.7030639648438 2361.034912109375 C -564.0756225585938 2361.034912109375 -558.7030639648438 2368.534912109375 -558.7030639648438 2368.534912109375 C -558.7030639648438 2368.534912109375 -564.0756225585938 2376.034912109375 -570.7030639648438 2376.034912109375 C -577.33056640625 2376.034912109375 -582.7030639648438 2368.534912109375 -582.7030639648438 2368.534912109375 C -582.7030639648438 2368.534912109375 -577.33056640625 2361.034912109375 -570.7030639648438 2361.034912109375 Z"/></g><g class="b" transform="translate(7.5 3)"><circle class="d" cx="4.5" cy="4.5" r="4.5"/><circle class="c" cx="4.5" cy="4.5" r="3.75"/></g></g><rect class="c" width="24" height="24"/></svg>