<svg xmlns="http://www.w3.org/2000/svg" xmlns:xlink="http://www.w3.org/1999/xlink" width="24" height="24" viewBox="0 0 24 24"><defs><style>.a,.c{fill:none;}.a{stroke:#707070;}.b{clip-path:url(#a);}.c{stroke:#fff;stroke-linecap:round;stroke-linejoin:round;stroke-width:1.5px;}</style><clipPath id="a"><rect class="a" width="24" height="24" transform="translate(-365 2526)"/></clipPath></defs><g class="b" transform="translate(365 -2526)"><g transform="translate(-838.667 1720.691)"><path class="c" d="M496.667,819.509v-4.4h-2.489a8.733,8.733,0,0,0-.937-2.263L495,811.087l-3.111-3.111-1.759,1.759a8.716,8.716,0,0,0-2.263-.937v-2.489h-4.4V808.8a8.71,8.71,0,0,0-2.263.937l-1.759-1.759-3.111,3.111,1.759,1.759a8.735,8.735,0,0,0-.937,2.263h-2.488v4.4h2.488a8.734,8.734,0,0,0,.937,2.263l-1.759,1.759,3.111,3.111,1.759-1.759a8.743,8.743,0,0,0,2.263.937v2.488h4.4v-2.488a8.749,8.749,0,0,0,2.263-.937l1.759,1.759L495,823.531l-1.759-1.759a8.732,8.732,0,0,0,.937-2.263Z"/><circle class="c" cx="3.3" cy="3.3" r="3.3" transform="translate(482.367 814.009)"/></g></g></svg>