<svg xmlns="http://www.w3.org/2000/svg" width="16" height="16" viewBox="0 0 16 16"><defs><style>.a{fill:#4485d1;}</style></defs><path class="a" d="M16.644,1518.8c-4.56,0-8,2.905-8,6.757a6.092,6.092,0,0,0,3.1,5.509v3.036a.7.7,0,0,0,.361.614.675.675,0,0,0,.7-.033l3.535-2.377c.1,0,.2.008.3.008,4.561,0,8-2.905,8-6.758S21.2,1518.8,16.644,1518.8Zm-4.307,6.836a.92.92,0,1,1,.92.936A.93.93,0,0,1,12.337,1525.631Zm4.307-.936a.936.936,0,1,1-.92.936A.93.93,0,0,1,16.644,1524.695Zm3.387,1.872a.936.936,0,1,1,.92-.936A.929.929,0,0,1,20.031,1526.567Z" transform="translate(-8.644 -1518.795)"/></svg>