<svg xmlns="http://www.w3.org/2000/svg" xmlns:xlink="http://www.w3.org/1999/xlink" width="16" height="16" viewBox="0 0 16 16"><defs><style>.a{fill:none;stroke:#707070;}.b{clip-path:url(#a);}.c{fill:#f1b338;}</style><clipPath id="a"><rect class="a" width="16" height="16" transform="translate(283 572)"/></clipPath></defs><g class="b" transform="translate(-283 -572)"><path class="c" d="M3142.6-1258.3a.7.7,0,0,0-.7-.7H3127.3a.7.7,0,0,0-.7.7v10.782a.7.7,0,0,0,.7.7h14.608a.7.7,0,0,0,.7-.7Zm-1.391.7v5.834l-1.17-.98a.7.7,0,0,0-.891,0l-1.873,1.558-4.364-3.791a.7.7,0,0,0-.895-.015l-4.024,3.26v-5.865Zm-13.218,9.391v-1.736l4.448-3.6,4.37,3.8a.7.7,0,0,0,.9.01l1.881-1.565,1.618,1.355v1.743Zm7.664-7.026a1.287,1.287,0,0,1,1.3-1.274,1.287,1.287,0,0,1,1.3,1.274,1.286,1.286,0,0,1-1.3,1.274A1.287,1.287,0,0,1,3135.656-1255.243Z" transform="translate(-2843.602 1833)"/></g></svg>