<?xml version="1.0" encoding="UTF-8"?>
<svg width="111px" height="113px" viewBox="0 0 111 113" version="1.1" xmlns="http://www.w3.org/2000/svg" xmlns:xlink="http://www.w3.org/1999/xlink">
    <!-- Generator: Sketch 43.1 (39012) - http://www.bohemiancoding.com/sketch -->
    <title>Logo</title>
    <desc>Created with Sketch.</desc>
    <defs></defs>
    <g id="Page-1" stroke="none" stroke-width="1" fill="none" fill-rule="evenodd">
        <g id="Logo">
            <g id="logomark" transform="translate(31.000000, 25.000000)">
                <path d="M24.5,63 L33.50375,58.2777778 L33.50375,49.3095238 C33.50375,44.6984127 36.02375,40.7380952 40.43375,38.4285714 L49,33.952381 L49,24.5 L34.72,31.984127 C28.21875,35.3888889 24.5,41.2301587 24.5,48.0396825 L24.5,63 Z" id="Fill-3" fill="#DBDCCF"></path>
                <path d="M0,24.5 L0,33.9444444 L8.56625,38.4285714 C12.9675,40.7380952 15.49625,44.6984127 15.49625,49.3095238 L15.49625,58.2777778 L24.5,63 L24.5,48.0396825 C24.5,41.2222222 20.78125,35.3809524 14.27125,31.968254 L0,24.5 Z" id="Fill-6" fill="#BBBCAD"></path>
                <path d="M1.75,21.9796988 L10.1157622,17.5 L18.0672974,21.7538317 C22.1527133,23.9447432 26.8391646,23.9447432 30.9245805,21.7538317 L38.8679936,17.5 L47.25,21.9796988 L33.9866119,29.0719279 C27.9518922,32.3093574 21.0399857,32.3093574 15.005266,29.0719279 L1.75,21.9796988 Z" id="Fill-1" fill="#FFFFFF"></path>
                <path d="M24.5,19.25 C30.2855351,19.25 35,14.9320175 35,9.63304094 C35,4.33406433 30.2855351,0 24.5,0 C18.7144649,0 14,4.33406433 14,9.63304094 C14,14.9320175 18.7144649,19.25 24.5,19.25" id="Fill-12" fill="#F6F7EB"></path>
            </g>
        </g>
    </g>
</svg>