<?xml version="1.0" encoding="UTF-8"?>
<!DOCTYPE svg PUBLIC "-//W3C//DTD SVG 1.1//EN" "http://www.w3.org/Graphics/SVG/1.1/DTD/svg11.dtd">
<!-- Creator: CorelDRAW -->
<svg xmlns="http://www.w3.org/2000/svg" xml:space="preserve" width="2048px" height="2048px" style="shape-rendering:geometricPrecision; text-rendering:geometricPrecision; image-rendering:optimizeQuality; fill-rule:evenodd; clip-rule:evenodd"
viewBox="0 0 2048 2048"
 xmlns:xlink="http://www.w3.org/1999/xlink">
 <defs>
  <style type="text/css">
   <![CDATA[
    .fil0 {fill:none}
    .fil1 {fill:#212121;fill-rule:nonzero}
   ]]>
  </style>
 </defs>
 <g id="Layer_x0020_1">
  <metadata id="CorelCorpID_0Corel-Layer"/>
  <rect class="fil0" width="2048" height="2048"/>
  <rect class="fil0" x="256" y="255.999" width="1536" height="1536"/>
  <path class="fil1" d="M1266.01 844.743c-15.2303,15.2315 -32.2914,29.1862 -50.9351,41.6197 -18.1925,12.1323 -37.7091,22.5874 -58.3052,31.1303l0.0188977 0.0448819c-20.2902,8.40709 -41.354,14.8784 -62.9434,19.1799 -21.2315,4.23071 -43.0926,6.45119 -65.3646,6.45119 -22.2756,0 -44.139,-2.21929 -65.3729,-6.45 -21.4276,-4.26733 -42.4536,-10.7374 -62.8241,-19.1764 -20.6339,-8.54764 -40.1835,-19.0169 -58.4067,-31.1681 -18.6425,-12.4311 -35.7024,-26.3847 -50.9339,-41.6162 -15.2315,-15.2327 -29.1851,-32.2925 -41.6162,-50.9363 -12.1512,-18.2244 -22.6205,-37.774 -31.167,-58.4067 -8.4378,-20.3717 -14.9067,-41.3965 -19.1764,-62.8252 -4.23071,-21.2351 -6.45,-43.0985 -6.45,-65.3729 0,-22.2756 2.21929,-44.139 6.44882,-65.3741 4.26851,-21.4288 10.7374,-42.4548 19.1752,-62.8276 8.54646,-20.6327 19.0158,-40.1823 31.1681,-58.4079 12.4311,-18.6414 26.3835,-35.7 41.615,-50.9315 15.2303,-15.2303 32.289,-29.1827 50.9315,-41.6138 18.2232,-12.1512 37.7729,-22.6205 58.4067,-31.1681 20.3717,-8.4378 41.3977,-14.9067 62.8252,-19.1752 21.2362,-4.22953 43.102,-6.44882 65.3764,-6.44882 22.2732,0 44.1343,2.21929 65.3658,6.45 21.4276,4.26969 42.4536,10.7398 62.8229,19.1776 20.6339,8.54764 40.1811,19.0169 58.4056,31.1693 18.6437,12.4335 35.7048,26.387 50.9386,41.6197 15.2315,15.2315 29.1862,32.2914 41.6185,50.9363 12.1524,18.2244 22.6229,37.7729 31.1717,58.4079 8.4378,20.3669 14.9079,41.3906 19.1788,62.8182 4.22953,21.2315 6.45,43.0949 6.45,65.3682 0,22.2437 -2.22047,44.1059 -6.45119,65.3693 -4.33347,21.7772 -10.8024,42.8929 -19.1799,63.1099l-12.2847 29.6445 -1.4941 -0.63189c-5.32441,10.0051 -11.1461,19.7362 -17.4354,29.1626 -12.4252,18.6225 -26.3658,35.6599 -41.5772,50.8713zm-86.4343 -11.3811c14.6386,-9.76182 28.4362,-21.1205 41.1839,-33.8693 12.7323,-12.7323 24.0768,-26.5075 33.8268,-41.1201 9.7193,-14.5677 18.1677,-30.3638 25.1528,-47.2028l2.25236 -5.42953c5.66693,-14.5618 10.1232,-29.739 13.2402,-45.404 3.40985,-17.1366 5.19922,-34.8981 5.19922,-53.1189 0,-18.0768 -1.78937,-35.7567 -5.19804,-52.8674 -3.57284,-17.9244 -8.7756,-35.0067 -15.4299,-51.0685 -6.89882,-16.6524 -15.3543,-32.4366 -25.1717,-47.1591 -9.76182,-14.6398 -21.1205,-28.4374 -33.8681,-41.1851 -12.7488,-12.7476 -26.5465,-24.1063 -41.1874,-33.8693 -14.7213,-9.81615 -30.5055,-18.2717 -47.1567,-25.1693 -16.0642,-6.65434 -33.1465,-11.8571 -51.0733,-15.4288 -17.1106,-3.40985 -34.7894,-5.19804 -52.865,-5.19804 -18.0803,0 -35.7614,1.78819 -52.8756,5.19685 -17.9291,3.57166 -35.0114,8.77324 -51.0756,15.4264 -16.6524,6.89764 -32.4366,15.352 -47.1579,25.1681 -14.6386,9.76064 -28.4351,21.1181 -41.1803,33.8634 -12.7476,12.7476 -24.1028,26.5429 -33.8646,41.1803 -9.81615,14.7225 -18.2705,30.5067 -25.1681,47.1591 -6.65315,16.0642 -11.8547,33.1477 -15.4264,51.078 -3.40866,17.113 -5.19685,34.7941 -5.19685,52.8733 0,18.078 1.78819,35.7591 5.19804,52.8721 3.57166,17.9291 8.77442,35.0126 15.4276,51.0756 6.89764,16.6524 15.352,32.4366 25.1669,47.1579 9.76182,14.6398 21.1193,28.4374 33.8658,41.1851 12.7476,12.7476 26.5441,24.104 41.1827,33.8658 14.7213,9.81615 30.5055,18.2705 47.1579,25.1681 16.0654,6.65434 33.1465,11.8571 51.0744,15.4276 17.113,3.40985 34.7941,5.19804 52.8721,5.19804 18.0744,0 35.7532,-1.78937 52.8638,-5.19922 17.7614,-3.53859 34.8024,-8.74371 50.9433,-15.4311l0.125197 0c16.6512,-6.89882 32.4378,-15.3567 47.1626,-25.1752z"/>
  <path class="fil1" d="M693.214 1632.56l-27.9366 0 -52.8993 0 -44.0185 0 -32.0008 0 0 -32.0008 0 -44.0197 0 -52.8981 0 -27.9378 0 -115.435c0,-10.4528 0.459449,-21.098 1.36299,-31.9028 0.852757,-10.2 2.22166,-21.0083 4.08307,-32.3705 1.76457,-10.7717 3.94134,-21.3496 6.50906,-31.7079 2.57481,-10.3902 5.63032,-20.8701 9.1441,-31.4044 3.45827,-10.3701 7.26733,-20.4331 11.4047,-30.1595 4.05,-9.51969 8.70591,-19.3099 13.9394,-29.3327 5.4437,-10.4268 10.8295,-19.8969 16.1398,-28.3855 5.89016,-9.41576 11.902,-18.2244 18.0154,-26.3988 5.88898,-7.8756 12.691,-16.174 20.3847,-24.8693 7.33819,-8.29371 14.8914,-16.1917 22.6335,-23.6646 7.42323,-7.16693 15.4406,-14.2902 24.0307,-21.3437 8.25355,-6.77717 16.963,-13.376 26.1059,-19.7705 9.47835,-6.62953 18.6331,-12.5551 27.4229,-17.7366 9.19961,-5.42363 18.7288,-10.5378 28.5685,-15.3189 9.79607,-4.76221 19.6937,-9.10631 29.6599,-13.0063 10.1114,-3.95788 20.3209,-7.49882 30.6036,-10.5969l14.5264 -4.37481 27.5044 -8.28544 22.8886 -6.89528 16.6394 -5.0126 13.2354 11.387c55.3878,47.6528 87.0993,69.9284 113.132,69.104 26.1603,-0.827953 57.6898,-25.337 111.326,-71.1827l14.0728 -12.0295 17.4272 6.27993 23.9705 8.63859 28.8059 10.3831 15.2102 5.48386c11.4827,4.1374 21.8374,8.17914 31.0607,12.1181 10.4492,4.46339 19.911,8.85591 28.3807,13.1728 9.22087,4.70079 18.3071,9.75828 27.2563,15.1689 8.48386,5.12953 17.1602,10.8413 26.0268,17.1319 8.88662,6.30473 17.2087,12.7134 24.965,19.2236 7.82481,6.56575 15.528,13.6158 23.1095,21.1394 7.49764,7.44213 14.5524,15.0579 21.1606,22.8437 6.57048,7.74095 12.913,15.9106 19.0264,24.4984 6.11221,8.59016 11.7189,17.198 16.8201,25.8201 5.14252,8.69292 9.99568,17.7555 14.5583,27.1843 4.26851,8.8193 8.31851,18.1772 12.1488,28.0642 3.63544,9.38268 7.03229,19.2803 10.1906,29.6811 3.08268,10.1528 5.70119,19.9181 7.85906,29.2973 2.17677,9.46182 4.12441,19.4953 5.84528,30.0898l0.0200788 -0.00354331c1.60276,9.87757 2.93622,20.0776 4.00394,30.5941 1.00984,9.94607 1.76102,20.1071 2.25473,30.4784l0.0944883 0.0944883 0.343701 3.95433 0.125197 2.74961 0 1.19764 0 44.0185 0 32.0008 -0.455906 0 0.0236221 39.3898 0.0165354 27.9378 0.0295276 52.8981 0.022441 44.0197 0.0153543 32.0008 -31.891 0 -43.8697 0 -52.7221 0 -27.8433 0 -670.467 0zm-27.9366 -64.0016l27.9366 0 670.467 0 27.8433 0 52.7221 0 11.9776 0 -0.00590552 -12.0189 -0.0295276 -52.8981 -0.0165354 -27.9378 -0.0437008 -71.3906 -0.0200788 -32.0008 0.245669 0 0 -11.9067 -0.218504 -2.51339 0.112205 -0.00944883 -0.0377953 -0.414567 -0.125197 -1.5c-0.434646,-9.42639 -1.11732,-18.7276 -2.04803,-27.8977 -0.903544,-8.89489 -2.06929,-17.7591 -3.50315,-26.5949l0 -0.125197c-1.36063,-8.39056 -3.06496,-17.0421 -5.11654,-25.9595 -2.07756,-9.03308 -4.2815,-17.3858 -6.60709,-25.0477 -2.57126,-8.46615 -5.46733,-16.8626 -8.69056,-25.1811 -3.02717,-7.81418 -6.40985,-15.587 -10.1504,-23.3138 -3.64134,-7.52481 -7.66182,-15.0071 -12.0567,-22.4362 -4.4374,-7.50001 -9.04489,-14.6079 -13.8201,-21.3201 -4.86496,-6.83504 -10.1244,-13.585 -15.7784,-20.2465 -5.61733,-6.61772 -11.4213,-12.9012 -17.4095,-18.8445 -5.87599,-5.83229 -12.2457,-11.6303 -19.1103,-17.3906 -6.92953,-5.81693 -13.9193,-11.2252 -20.9634,-16.2236 -6.74528,-4.78583 -14.0882,-9.57993 -22.0276,-14.3799 -7.47284,-4.51772 -15.2256,-8.8252 -23.2571,-12.9201 -8.14134,-4.14922 -16.2673,-7.95709 -24.3792,-11.4224 -9.33544,-3.9874 -18.5244,-7.61221 -27.5622,-10.8685l-15.2102 -5.48386 -28.8059 -10.3831 -6.61536 -2.38465c-56.5796,47.6091 -93.7914,73.0725 -136.68,74.4296 -43.3677,1.37362 -82.9123,-22.2768 -143.284,-73.0004l-6.36142 1.91575 -27.5044 8.28544 -14.5264 4.37481c-8.74135,2.63386 -17.2819,5.58898 -25.6028,8.84646 -8.63268,3.37796 -17.0256,7.05473 -25.1599,11.0079 -7.91812,3.84685 -15.8658,8.12717 -23.8205,12.8173 -8.48977,5.00433 -16.3004,10.0063 -23.4213,14.987 -7.58505,5.30433 -14.961,10.9028 -22.1067,16.7705 -6.87284,5.64331 -13.6406,11.6835 -20.2795,18.0933 -6.913,6.67323 -13.2992,13.3205 -19.1351,19.9158 -5.49685,6.2126 -11.1319,13.1776 -16.8839,20.8701 -5.35867,7.16575 -10.3713,14.4744 -15.0154,21.8988 -5.19449,8.30316 -9.8315,16.3583 -13.891,24.1335 -4.02638,7.71142 -7.92875,15.9957 -11.6882,24.8327 -3.62481,8.52166 -6.8504,17.002 -9.65434,25.4114 -2.84055,8.51694 -5.3941,17.3256 -7.6441,26.4036 -2.21693,8.94095 -4.05945,17.8536 -5.50985,26.7071 -1.41142,8.61142 -2.52756,17.739 -3.33189,27.3721 -0.737008,8.81812 -1.1126,17.7118 -1.1126,26.6516l0 115.435 0 27.9378 0 52.8981 0 12.0189 12.0177 0 52.8993 0z"/>
 </g>
</svg>
