<svg xmlns="http://www.w3.org/2000/svg" xmlns:xlink="http://www.w3.org/1999/xlink" width="16" height="16" viewBox="0 0 16 16"><defs><style>.a{fill:none;stroke:#707070;}.b{clip-path:url(#a);}.c{fill:#f1b338;}</style><clipPath id="a"><rect class="a" width="16" height="16" transform="translate(362 574)"/></clipPath></defs><g class="b" transform="translate(-362 -574)"><path class="c" d="M3048.155-1422.946a.679.679,0,0,0-.747.155l-3.417,3.446h-1.7a.687.687,0,0,0-.692.689v5.928a.687.687,0,0,0,.692.689h1.7l3.43,3.446a.7.7,0,0,0,.493.206.574.574,0,0,0,.241-.052.673.673,0,0,0,.406-.642V-1422.3A.674.674,0,0,0,3048.155-1422.946Zm-.987,12.181-2.42-2.457a.643.643,0,0,0-.469-.208h-1.286v-4.523h1.286a.644.644,0,0,0,.469-.208l2.42-2.457Zm3.685-1.98a.694.694,0,0,1-.52.232.694.694,0,0,1-.463-.177.7.7,0,0,1-.055-.983,2.968,2.968,0,0,0,0-4.04.7.7,0,0,1,.061-.981.694.694,0,0,1,.979.056A4.346,4.346,0,0,1,3050.854-1412.746Zm2.1,1.862a.694.694,0,0,1-.52.232.693.693,0,0,1-.463-.177.7.7,0,0,1-.055-.983c3.43-3.836.142-7.6,0-7.761a.7.7,0,0,1,.055-.983.7.7,0,0,1,.983.055C3053-1420.452,3057.207-1415.637,3052.957-1410.884Zm2.2,1.395a.694.694,0,0,1-.519.232.694.694,0,0,1-.464-.177.7.7,0,0,1-.055-.983,7.214,7.214,0,0,0,1.776-7.228,9.615,9.615,0,0,0-1.776-3.321.7.7,0,0,1,.055-.983.7.7,0,0,1,.983.055C3055.208-1421.832,3060.635-1415.621,3055.153-1409.489Z" transform="translate(-2679.602 1997.998)"/></g></svg>