<svg xmlns="http://www.w3.org/2000/svg" xmlns:xlink="http://www.w3.org/1999/xlink" width="24" height="24" viewBox="0 0 24 24"><defs><style>.a{fill:none;}.b{clip-path:url(#a);}.c{fill:#585a5d;}</style><clipPath id="a"><rect class="a" width="24" height="24" transform="translate(-196.615 1270.103)"/></clipPath></defs><g class="b" transform="translate(196.615 -1270.103)"><path class="c" d="M-176.679,1294.1h-15.873a2.044,2.044,0,0,1-2.064-2.018V1272.12a2.043,2.043,0,0,1,2.064-2.017h11.578a.477.477,0,0,1,.476.48.478.478,0,0,1-.476.48h-11.578a1.086,1.086,0,0,0-1.111,1.057v19.965a1.087,1.087,0,0,0,1.111,1.058h15.873a1.087,1.087,0,0,0,1.111-1.058v-15.65a.478.478,0,0,1,.476-.48.478.478,0,0,1,.476.48v15.65A2.043,2.043,0,0,1-176.679,1294.1Z"/><path class="c" d="M-175.092,1276.915h-5.882a.477.477,0,0,1-.476-.48v-5.7a.478.478,0,0,1,.476-.48.478.478,0,0,1,.476.48v5.218h5.406a.478.478,0,0,1,.476.48A.477.477,0,0,1-175.092,1276.915Z"/><path class="c" d="M-175.092,1276.915a.471.471,0,0,1-.334-.138l-5.882-5.853a.482.482,0,0,1-.005-.679.474.474,0,0,1,.673,0l5.882,5.853a.482.482,0,0,1,0,.679A.472.472,0,0,1-175.092,1276.915Z"/><path class="c" d="M-188.411,1291.159a2.35,2.35,0,0,1-1.638-.656,2.23,2.23,0,0,1-.688-1.615,2.226,2.226,0,0,1,.688-1.612l2.011-1.949a2.343,2.343,0,0,1,1.64-.659.477.477,0,0,1,.476.48.478.478,0,0,1-.476.48,1.4,1.4,0,0,0-.98.39l-2.011,1.95a1.269,1.269,0,0,0-.4.921,1.276,1.276,0,0,0,.4.921,1.42,1.42,0,0,0,1.958,0l2.011-1.949a1.281,1.281,0,0,0,.4-.922.478.478,0,0,1,.476-.48.478.478,0,0,1,.476.48,2.231,2.231,0,0,1-.688,1.613l-2.012,1.95A2.356,2.356,0,0,1-188.411,1291.159Z"/><path class="c" d="M-182.834,1285.758a.478.478,0,0,1-.476-.48.478.478,0,0,1,.476-.48,1.4,1.4,0,0,0,.98-.392l2.011-1.948a1.275,1.275,0,0,0,.4-.922,1.271,1.271,0,0,0-.4-.921,1.415,1.415,0,0,0-1.956,0l-2.012,1.949a1.275,1.275,0,0,0-.4.921.477.477,0,0,1-.476.48.477.477,0,0,1-.476-.48,2.227,2.227,0,0,1,.688-1.613l2.012-1.949a2.372,2.372,0,0,1,3.277,0,2.233,2.233,0,0,1,.687,1.613,2.235,2.235,0,0,1-.687,1.614l-2.012,1.949A2.346,2.346,0,0,1-182.834,1285.758Z"/><path class="c" d="M-187.406,1288.4a.479.479,0,0,1-.344-.147.483.483,0,0,1,.014-.679l5.58-5.406a.473.473,0,0,1,.674.014.483.483,0,0,1-.013.678l-5.581,5.406A.473.473,0,0,1-187.406,1288.4Z"/></g></svg>