<svg xmlns="http://www.w3.org/2000/svg" xmlns:xlink="http://www.w3.org/1999/xlink" width="16" height="16" viewBox="0 0 16 16"><defs><style>.a{fill:none;stroke:#707070;}.b{clip-path:url(#a);}.c{fill:#f1b338;}</style><clipPath id="a"><rect class="a" width="16" height="16" transform="translate(443 574)"/></clipPath></defs><g class="b" transform="translate(-443 -574)"><path class="c" d="M2920.217-1248.927a.764.764,0,0,0-.766.066l-2.85,2.109v-1.553a.635.635,0,0,0-.62-.7H2905.3a.7.7,0,0,0-.7.7v7.3a.7.7,0,0,0,.7.7h10.684a.635.635,0,0,0,.62-.7v-1.553l2.85,2.11a.756.756,0,0,0,.437.139.736.736,0,0,0,.32-.073.7.7,0,0,0,.394-.622v-7.3A.7.7,0,0,0,2920.217-1248.927Zm-5.007,7.231h-9.218v-5.913h9.218Zm4-.7-2.434-1.841v-.84l2.434-1.84Z" transform="translate(-2461.602 1827.001)"/></g></svg>