<svg xmlns="http://www.w3.org/2000/svg" xmlns:xlink="http://www.w3.org/1999/xlink" width="140" height="56" viewBox="0 0 140 56"><defs><style>.a{fill:none;stroke:#707070;}.b{clip-path:url(#a);}.c{fill:#f1b338;}</style><clipPath id="a"><rect class="a" width="140" height="56" rx="2" transform="translate(636 137)"/></clipPath></defs><g class="b" transform="translate(-636 -137)"><g transform="translate(675 138)"><g transform="translate(6.352 14.133)"><path class="c" d="M-126.155,490.635a1,1,0,0,1-.588-.182l-23.368-16.711a1.083,1.083,0,0,1-.094-1.579,1.236,1.236,0,0,1,1.634-.345l22.814,16.316,28.012-16.316a1.052,1.052,0,0,1,1.523.345,1.268,1.268,0,0,1-.6,1.579l-28.692,16.711A1.287,1.287,0,0,1-126.155,490.635Z" transform="translate(150.499 -471.638)"/></g><g transform="translate(0 10.356)"><path class="c" d="M-102.533,512.965h-52.551a.95.95,0,0,1-.961-1.142l6.361-39.933a1.4,1.4,0,0,1,.794-1.021l4.934-2.281a1.015,1.015,0,0,1,1.451.512,1.309,1.309,0,0,1-.755,1.532l-4.252,1.966-6.065,38.083h50.266l6.075-38.145-3.114-2.084a1.072,1.072,0,0,1-.137-1.569,1.247,1.247,0,0,1,1.63-.386l3.613,2.416a.967.967,0,0,1,.4.977l-6.361,39.933A1.391,1.391,0,0,1-102.533,512.965Z" transform="translate(156.059 -468.332)"/></g><g transform="translate(18.988)"><path class="c" d="M-107.23,468.559a1.014,1.014,0,0,1-.426-.089l-15.147-6.809-15.144,6.785a1.015,1.015,0,0,1-1.442-.532,1.316,1.316,0,0,1,.776-1.525l15.644-7.009a1.148,1.148,0,0,1,.942-.024l15.589,7.009a1.02,1.02,0,0,1,.374,1.494A1.388,1.388,0,0,1-107.23,468.559Z" transform="translate(139.438 -459.266)"/></g><g transform="translate(0.001 26.345)"><path class="c" d="M-155.085,510.972a.989.989,0,0,1-.637-.219,1.107,1.107,0,0,1,.006-1.6l23.43-26.361a1.206,1.206,0,0,1,1.635-.248,1.106,1.106,0,0,1,0,1.6l-23.43,26.36A1.358,1.358,0,0,1-155.085,510.972Z" transform="translate(156.058 -482.327)"/></g><g transform="translate(37.534 26.345)"><path class="c" d="M-107.21,510.972a.951.951,0,0,1-.85-.47l-15.017-26.36a1.242,1.242,0,0,1,.5-1.595,1.073,1.073,0,0,1,1.556.249L-106,509.158a1.242,1.242,0,0,1-.5,1.595A1.3,1.3,0,0,1-107.21,510.972Z" transform="translate(123.204 -482.327)"/></g><g transform="translate(10.392 7.008)"><path class="c" d="M-102.575,476.825a.95.95,0,0,1-.961-1.142l1.274-8h-41.127l-1.274,8a1.391,1.391,0,0,1-1.324,1.142.95.95,0,0,1-.961-1.142l1.455-9.139a1.392,1.392,0,0,1,1.325-1.142h43.412a.95.95,0,0,1,.96,1.142l-1.455,9.139A1.391,1.391,0,0,1-102.575,476.825Z" transform="translate(146.962 -465.401)"/></g></g><g transform="translate(650.282 162.829)"><path class="c" d="M-161.909,483.285h-18.182a1.046,1.046,0,0,1-.909-1.142,1.046,1.046,0,0,1,.909-1.142h18.182a1.046,1.046,0,0,1,.909,1.142A1.046,1.046,0,0,1-161.909,483.285Z" transform="translate(181 -481)"/></g><g transform="translate(636 173.11)"><path class="c" d="M-158.013,492.285h-30.845A1.142,1.142,0,0,1-190,491.142,1.142,1.142,0,0,1-188.858,490h30.845a1.142,1.142,0,0,1,1.142,1.142A1.142,1.142,0,0,1-158.013,492.285Z" transform="translate(190 -490)"/></g><g transform="translate(743 167.11)"><path class="c" d="M-175.984,492.285h-13.187a1.185,1.185,0,0,1-.828-1.142,1.185,1.185,0,0,1,.828-1.142h13.3a1.218,1.218,0,0,1,.875,1.142A1.3,1.3,0,0,1-175.984,492.285Z" transform="translate(190 -490)"/></g><g transform="translate(741 178.11)"><path class="c" d="M-180.766,492.285l-8.422.074a1.439,1.439,0,0,1-.812-1.216,1.346,1.346,0,0,1,.875-1.142h8.266a1.335,1.335,0,0,1,.859,1.142A1.277,1.277,0,0,1-180.766,492.285Z" transform="translate(190 -490)"/></g><g transform="translate(642.854 183.392)"><path class="c" d="M-160.009,501.285h-22.848A1.142,1.142,0,0,1-184,500.142,1.142,1.142,0,0,1-182.858,499h22.848a1.142,1.142,0,0,1,1.142,1.142A1.142,1.142,0,0,1-160.009,501.285Z" transform="translate(184 -499)"/></g></g></svg>